<?xml version="1.0" encoding="UTF-8"?>
<svg version="1.1" viewBox="0 0 1200 1200" xmlns="http://www.w3.org/2000/svg" xmlns:xlink="http://www.w3.org/1999/xlink">
 <defs>
  <filter id="h" color-interpolation-filters="sRGB">
   <feGaussianBlur stdDeviation="0.67040231"/>
  </filter>
  <filter id="f" color-interpolation-filters="sRGB">
   <feGaussianBlur stdDeviation="0.65302051"/>
  </filter>
  <filter id="i" x="-.12123" y="-.34937" width="1.2425" height="1.6987">
   <feGaussianBlur stdDeviation="52.821427"/>
  </filter>
  <linearGradient id="j" x1="461.49" x2="474.35" y1="453.25" y2="472.36" gradientTransform="matrix(5.7628 1.5441 -1.3795 5.1484 -1648.7 -3088.5)" gradientUnits="userSpaceOnUse">
   <stop stop-color="#ff0" offset="0"/>
   <stop stop-color="#ff0" stop-opacity="0" offset="1"/>
  </linearGradient>
  <linearGradient id="k" x1="383.96" x2="449.86" y1="526.78" y2="526.78" gradientTransform="matrix(-1.3795 5.1484 -5.7628 -1.5441 4379 -1394.2)" gradientUnits="userSpaceOnUse">
   <stop stop-color="#fff" offset="0"/>
   <stop stop-color="#fff" stop-opacity="0" offset="1"/>
  </linearGradient>
  <linearGradient id="a" x1="614.2" x2="658.54" y1="602.45" y2="596.89" gradientTransform="matrix(.88334 0 0 .88334 75.036 71.368)" gradientUnits="userSpaceOnUse">
   <stop stop-color="#fff7f7" stop-opacity=".5" offset="0"/>
   <stop stop-color="#fff" stop-opacity="0" offset="1"/>
  </linearGradient>
 </defs>
 <g transform="translate(0 147.64)">
  <rect y="-147.64" width="1200" height="1200" fill="#fff"/>
  <path transform="matrix(.96593 .25882 -.25882 .96593 253.69 -301.66)" d="m1117.1 932.86c0 100.2-234.09 181.43-522.86 181.43s-522.86-81.228-522.86-181.43c0-100.2 234.09-181.43 522.86-181.43s522.86 81.228 522.86 181.43z" fill="#808080" filter="url(#i)"/>
  <path d="m1092.2 574.04c23.462 8.7314 52.938 7.5367 63.059 38.283-1.6326 4.2442 2.5704 4.8408-8.2908 6.6123-5.6338-26.892-30.603-29.535-53.879-34.301z"/>
  <path d="m1117.5 587.66c68.566-255.89-108.05-525.57-394.49-602.32-286.45-76.753-574.24 68.489-642.8 324.38l1037.3 277.94z" fill="#008000"/>
  <path d="m1117.5 587.66c41.252-153.96-157.51-340.98-443.96-417.73-286.45-76.753-552.09-14.167-593.34 139.79l1037.3 277.94z" fill="#f00"/>
  <path d="m1117.5 587.66c-68.566 255.89-356.36 401.13-642.8 324.38-286.45-76.753-463.06-346.43-394.49-602.32l1037.3 277.94z" fill="#008000"/>
  <path d="m1117.5 587.66c-41.253 153.96-306.89 216.54-593.34 139.79-286.45-76.753-485.21-263.78-443.96-417.73l1037.3 277.94z" fill="#f55"/>
  <path d="m1122.2 382.85c-38.918-181.82-189.54-341.34-399.19-397.52-209.59-56.161-419.98 6.5302-544.6 144.46 141.94-103.38 336.64-142.93 530.29-91.045 193.7 51.901 342.28 183.55 413.5 344.1z" fill="url(#k)"/>
  <path transform="matrix(-1.3759 5.135 -5.7478 -1.5401 4367.3 -1376.2)" d="m515.04 442.1c34.573-3.9826 77.163 34.187 77.886 91.228 0.67742 53.427-45.362 88.585-77.886 88.709 0.0901-1e-3 0.17836 2e-3 0.26843 0 0.0789-3e-3 0.15612 3e-3 0.23489 0 38.303 0.69439 85.32-35.896 83.523-89.704-1.7401-52.113-44.586-92.894-83.523-90.234-0.0788-1e-3 1.992-0.0312-0.23489 0-0.0887-3e-3 -0.17968 3e-3 -0.26843 0z" fill="#fff" filter="url(#h)"/>
  <path transform="matrix(-1.2186 4.5478 -5.7628 -1.5441 4296.1 -1084.9)" d="m515.04 442.1c38.102 1.2321 71.818 41.039 71.818 89.969s-33.717 88.737-71.818 89.969c0.10932-1e-3 0.21631 2e-3 0.32556 0 0.0957-3e-3 0.18933 3e-3 0.28487 0 44.766-1.3933 78.814-41.143 78.814-89.969s-34.048-88.575-78.814-89.969c-0.0956-1e-3 -0.18929 1e-3 -0.28487 0-0.10755-3e-3 -0.21792 3e-3 -0.32556 0z" fill="#fff" filter="url(#f)"/>
  <path transform="matrix(1.2186 -4.5478 -5.7628 -1.5441 3039.4 3605.3)" d="m515.04 442.1c38.102 1.2321 64.801 41.173 64.801 90.103s-26.699 88.603-64.801 89.835c0.10932-1e-3 0.21631 2e-3 0.32556 0 0.0957-3e-3 0.18933 3e-3 0.28487 0 42.904-1.0644 69.777-40.751 72.588-90.218 2.5726-45.271-28.107-87.067-72.588-89.719-0.0956-1e-3 -0.18929 1e-3 -0.28487 0-0.10755-3e-3 -0.21792 3e-3 -0.32556 0z" fill="#fff" filter="url(#f)"/>
  <path transform="matrix(1.3759 -5.135 -5.7478 -1.5401 2952.1 3905.5)" d="m515.04 442.1c34.573-3.9826 73.243 32.227 73.966 89.268 0.67742 53.427-41.442 90.545-73.966 90.669 0.0901-1e-3 0.17836 2e-3 0.26843 0 0.0789-3e-3 0.15612 3e-3 0.23489 0 38.303 0.69439 81.073-37.203 79.276-91.01-1.7401-52.113-40.339-91.587-79.276-88.927-0.0788-1e-3 1.992-0.0312-0.23489 0-0.0887-3e-3 -0.17968 3e-3 -0.26843 0z" fill="#fff" filter="url(#h)"/>
  <g transform="matrix(-.42351 -.11348 .10138 -.37836 1269.8 830.54)">
   <path d="m636.43 574.72s17.483 25.01 10.272 34.668c-4.0971 5.4871-16.447 5.4871-20.544 0-7.2109-9.6574 10.272-34.668 10.272-34.668z" fill="#2b0000"/>
   <path d="m636.43 574.72s-17.492 24.999-10.281 34.656c2.3368 3.1296 7.3564 4.4716 12 4.0312-3.5098-0.32664-6.7969-1.6667-8.5625-4.0312-5.8423-7.8245 4.3854-25.517 8.5312-32.031-0.96866-1.5217-1.6875-2.625-1.6875-2.625z"/>
   <path d="m639.62 589.05s8.967 12.828 5.2685 17.781c-2.1014 2.8144-8.4356 2.8144-10.537 0-3.6985-4.9533 5.2685-17.781 5.2685-17.781z" fill="url(#a)"/>
  </g>
  <g transform="matrix(-.42351 -.11348 .10138 -.37836 1225.6 811.65)">
   <path d="m636.43 574.72s17.483 25.01 10.272 34.668c-4.0971 5.4871-16.447 5.4871-20.544 0-7.2109-9.6574 10.272-34.668 10.272-34.668z" fill="#2b0000"/>
   <path d="m636.43 574.72s-17.492 24.999-10.281 34.656c2.3368 3.1296 7.3564 4.4716 12 4.0312-3.5098-0.32664-6.7969-1.6667-8.5625-4.0312-5.8423-7.8245 4.3854-25.517 8.5312-32.031-0.96866-1.5217-1.6875-2.625-1.6875-2.625z"/>
   <path d="m639.62 589.05s8.967 12.828 5.2685 17.781c-2.1014 2.8144-8.4356 2.8144-10.537 0-3.6985-4.9533 5.2685-17.781 5.2685-17.781z" fill="url(#a)"/>
  </g>
  <path d="m723.05-14.665c15.107 24.369-183.11 57.422-275.71 83.592-86.83 24.539-247.24 93.194-262.34 68.825-15.107-24.369 151.25-133.48 251.33-151.73 158.98-28.993 286.73-0.68685 286.73-0.68685z" fill="url(#j)"/>
  <path d="m673.58 169.93c-286.45-76.753-552.08-14.166-593.34 139.79l0.54343 0.14561c61.204-147.17 317.61-207.33 591.21-134.02 273.6 73.311 465.6 253.62 445.02 411.68l0.5433 0.14559c41.253-153.96-157.53-340.98-443.98-417.74z" fill="#efa"/>
  <path d="m524.2 727.45c-286.45-76.753-485.2-263.77-443.95-417.73l0.54343 0.14561c-20.579 158.05 171.39 338.36 444.99 411.67 273.6 73.311 530.03 13.158 591.24-134.01l0.5433 0.14559c-41.253 153.96-306.92 216.54-593.37 139.78z" fill="#efa"/>
  <g transform="matrix(-.42351 -.11348 .10138 -.37836 1170.9 768.48)">
   <path d="m636.43 574.72s17.483 25.01 10.272 34.668c-4.0971 5.4871-16.447 5.4871-20.544 0-7.2109-9.6574 10.272-34.668 10.272-34.668z" fill="#2b0000"/>
   <path d="m636.43 574.72s-17.492 24.999-10.281 34.656c2.3368 3.1296 7.3564 4.4716 12 4.0312-3.5098-0.32664-6.7969-1.6667-8.5625-4.0312-5.8423-7.8245 4.3854-25.517 8.5312-32.031-0.96866-1.5217-1.6875-2.625-1.6875-2.625z"/>
   <path d="m639.62 589.05s8.967 12.828 5.2685 17.781c-2.1014 2.8144-8.4356 2.8144-10.537 0-3.6985-4.9533 5.2685-17.781 5.2685-17.781z" fill="url(#a)"/>
  </g>
  <g transform="matrix(-.42351 -.11348 .10138 -.37836 1106 733)">
   <path d="m636.43 574.72s17.483 25.01 10.272 34.668c-4.0971 5.4871-16.447 5.4871-20.544 0-7.2109-9.6574 10.272-34.668 10.272-34.668z" fill="#2b0000"/>
   <path d="m636.43 574.72s-17.492 24.999-10.281 34.656c2.3368 3.1296 7.3564 4.4716 12 4.0312-3.5098-0.32664-6.7969-1.6667-8.5625-4.0312-5.8423-7.8245 4.3854-25.517 8.5312-32.031-0.96866-1.5217-1.6875-2.625-1.6875-2.625z"/>
   <path d="m639.62 589.05s8.967 12.828 5.2685 17.781c-2.1014 2.8144-8.4356 2.8144-10.537 0-3.6985-4.9533 5.2685-17.781 5.2685-17.781z" fill="url(#a)"/>
  </g>
  <g transform="matrix(-.42351 -.11348 .10138 -.37836 1043.6 700.19)">
   <path d="m636.43 574.72s17.483 25.01 10.272 34.668c-4.0971 5.4871-16.447 5.4871-20.544 0-7.2109-9.6574 10.272-34.668 10.272-34.668z" fill="#2b0000"/>
   <path d="m636.43 574.72s-17.492 24.999-10.281 34.656c2.3368 3.1296 7.3564 4.4716 12 4.0312-3.5098-0.32664-6.7969-1.6667-8.5625-4.0312-5.8423-7.8245 4.3854-25.517 8.5312-32.031-0.96866-1.5217-1.6875-2.625-1.6875-2.625z"/>
   <path d="m639.62 589.05s8.967 12.828 5.2685 17.781c-2.1014 2.8144-8.4356 2.8144-10.537 0-3.6985-4.9533 5.2685-17.781 5.2685-17.781z" fill="url(#a)"/>
  </g>
  <g transform="matrix(-.42351 -.11348 .10138 -.37836 986.19 677.96)">
   <path d="m636.43 574.72s17.483 25.01 10.272 34.668c-4.0971 5.4871-16.447 5.4871-20.544 0-7.2109-9.6574 10.272-34.668 10.272-34.668z" fill="#2b0000"/>
   <path d="m636.43 574.72s-17.492 24.999-10.281 34.656c2.3368 3.1296 7.3564 4.4716 12 4.0312-3.5098-0.32664-6.7969-1.6667-8.5625-4.0312-5.8423-7.8245 4.3854-25.517 8.5312-32.031-0.96866-1.5217-1.6875-2.625-1.6875-2.625z"/>
   <path d="m639.62 589.05s8.967 12.828 5.2685 17.781c-2.1014 2.8144-8.4356 2.8144-10.537 0-3.6985-4.9533 5.2685-17.781 5.2685-17.781z" fill="url(#a)"/>
  </g>
  <g transform="matrix(-.42351 -.11348 .10138 -.37836 928.78 655.59)">
   <path d="m636.43 574.72s17.483 25.01 10.272 34.668c-4.0971 5.4871-16.447 5.4871-20.544 0-7.2109-9.6574 10.272-34.668 10.272-34.668z" fill="#2b0000"/>
   <path d="m636.43 574.72s-17.492 24.999-10.281 34.656c2.3368 3.1296 7.3564 4.4716 12 4.0312-3.5098-0.32664-6.7969-1.6667-8.5625-4.0312-5.8423-7.8245 4.3854-25.517 8.5312-32.031-0.96866-1.5217-1.6875-2.625-1.6875-2.625z"/>
   <path d="m639.62 589.05s8.967 12.828 5.2685 17.781c-2.1014 2.8144-8.4356 2.8144-10.537 0-3.6985-4.9533 5.2685-17.781 5.2685-17.781z" fill="url(#a)"/>
  </g>
  <g transform="matrix(-.42351 -.11348 .10138 -.37836 867.67 636.63)">
   <path d="m636.43 574.72s17.483 25.01 10.272 34.668c-4.0971 5.4871-16.447 5.4871-20.544 0-7.2109-9.6574 10.272-34.668 10.272-34.668z" fill="#2b0000"/>
   <path d="m636.43 574.72s-17.492 24.999-10.281 34.656c2.3368 3.1296 7.3564 4.4716 12 4.0312-3.5098-0.32664-6.7969-1.6667-8.5625-4.0312-5.8423-7.8245 4.3854-25.517 8.5312-32.031-0.96866-1.5217-1.6875-2.625-1.6875-2.625z"/>
   <path d="m639.62 589.05s8.967 12.828 5.2685 17.781c-2.1014 2.8144-8.4356 2.8144-10.537 0-3.6985-4.9533 5.2685-17.781 5.2685-17.781z" fill="url(#a)"/>
  </g>
  <g transform="matrix(-.42351 -.11348 .10138 -.37836 796.71 622.56)">
   <path d="m636.43 574.72s17.483 25.01 10.272 34.668c-4.0971 5.4871-16.447 5.4871-20.544 0-7.2109-9.6574 10.272-34.668 10.272-34.668z" fill="#2b0000"/>
   <path d="m636.43 574.72s-17.492 24.999-10.281 34.656c2.3368 3.1296 7.3564 4.4716 12 4.0312-3.5098-0.32664-6.7969-1.6667-8.5625-4.0312-5.8423-7.8245 4.3854-25.517 8.5312-32.031-0.96866-1.5217-1.6875-2.625-1.6875-2.625z"/>
   <path d="m639.62 589.05s8.967 12.828 5.2685 17.781c-2.1014 2.8144-8.4356 2.8144-10.537 0-3.6985-4.9533 5.2685-17.781 5.2685-17.781z" fill="url(#a)"/>
  </g>
  <g transform="matrix(-.42351 -.11348 .10138 -.37836 730.63 609.45)">
   <path d="m636.43 574.72s17.483 25.01 10.272 34.668c-4.0971 5.4871-16.447 5.4871-20.544 0-7.2109-9.6574 10.272-34.668 10.272-34.668z" fill="#2b0000"/>
   <path d="m636.43 574.72s-17.492 24.999-10.281 34.656c2.3368 3.1296 7.3564 4.4716 12 4.0312-3.5098-0.32664-6.7969-1.6667-8.5625-4.0312-5.8423-7.8245 4.3854-25.517 8.5312-32.031-0.96866-1.5217-1.6875-2.625-1.6875-2.625z"/>
   <path d="m639.62 589.05s8.967 12.828 5.2685 17.781c-2.1014 2.8144-8.4356 2.8144-10.537 0-3.6985-4.9533 5.2685-17.781 5.2685-17.781z" fill="url(#a)"/>
  </g>
  <g transform="matrix(-.42351 -.11348 .10138 -.37836 671.38 600.04)">
   <path d="m636.43 574.72s17.483 25.01 10.272 34.668c-4.0971 5.4871-16.447 5.4871-20.544 0-7.2109-9.6574 10.272-34.668 10.272-34.668z" fill="#2b0000"/>
   <path d="m636.43 574.72s-17.492 24.999-10.281 34.656c2.3368 3.1296 7.3564 4.4716 12 4.0312-3.5098-0.32664-6.7969-1.6667-8.5625-4.0312-5.8423-7.8245 4.3854-25.517 8.5312-32.031-0.96866-1.5217-1.6875-2.625-1.6875-2.625z"/>
   <path d="m639.62 589.05s8.967 12.828 5.2685 17.781c-2.1014 2.8144-8.4356 2.8144-10.537 0-3.6985-4.9533 5.2685-17.781 5.2685-17.781z" fill="url(#a)"/>
  </g>
  <g transform="matrix(-.42351 -.11348 .10138 -.37836 602.86 595.08)">
   <path d="m636.43 574.72s17.483 25.01 10.272 34.668c-4.0971 5.4871-16.447 5.4871-20.544 0-7.2109-9.6574 10.272-34.668 10.272-34.668z" fill="#2b0000"/>
   <path d="m636.43 574.72s-17.492 24.999-10.281 34.656c2.3368 3.1296 7.3564 4.4716 12 4.0312-3.5098-0.32664-6.7969-1.6667-8.5625-4.0312-5.8423-7.8245 4.3854-25.517 8.5312-32.031-0.96866-1.5217-1.6875-2.625-1.6875-2.625z"/>
   <path d="m639.62 589.05s8.967 12.828 5.2685 17.781c-2.1014 2.8144-8.4356 2.8144-10.537 0-3.6985-4.9533 5.2685-17.781 5.2685-17.781z" fill="url(#a)"/>
  </g>
  <g transform="matrix(-.42351 -.11348 .10138 -.37836 538.04 591.67)">
   <path d="m636.43 574.72s17.483 25.01 10.272 34.668c-4.0971 5.4871-16.447 5.4871-20.544 0-7.2109-9.6574 10.272-34.668 10.272-34.668z" fill="#2b0000"/>
   <path d="m636.43 574.72s-17.492 24.999-10.281 34.656c2.3368 3.1296 7.3564 4.4716 12 4.0312-3.5098-0.32664-6.7969-1.6667-8.5625-4.0312-5.8423-7.8245 4.3854-25.517 8.5312-32.031-0.96866-1.5217-1.6875-2.625-1.6875-2.625z"/>
   <path d="m639.62 589.05s8.967 12.828 5.2685 17.781c-2.1014 2.8144-8.4356 2.8144-10.537 0-3.6985-4.9533 5.2685-17.781 5.2685-17.781z" fill="url(#a)"/>
  </g>
  <g transform="matrix(-.42351 -.11348 .10138 -.37836 462.12 598.78)">
   <path d="m636.43 574.72s17.483 25.01 10.272 34.668c-4.0971 5.4871-16.447 5.4871-20.544 0-7.2109-9.6574 10.272-34.668 10.272-34.668z" fill="#2b0000"/>
   <path d="m636.43 574.72s-17.492 24.999-10.281 34.656c2.3368 3.1296 7.3564 4.4716 12 4.0312-3.5098-0.32664-6.7969-1.6667-8.5625-4.0312-5.8423-7.8245 4.3854-25.517 8.5312-32.031-0.96866-1.5217-1.6875-2.625-1.6875-2.625z"/>
   <path d="m639.62 589.05s8.967 12.828 5.2685 17.781c-2.1014 2.8144-8.4356 2.8144-10.537 0-3.6985-4.9533 5.2685-17.781 5.2685-17.781z" fill="url(#a)"/>
  </g>
  <g transform="matrix(-.42351 -.11348 .10138 -.37836 384.34 612.48)">
   <path d="m636.43 574.72s17.483 25.01 10.272 34.668c-4.0971 5.4871-16.447 5.4871-20.544 0-7.2109-9.6574 10.272-34.668 10.272-34.668z" fill="#2b0000"/>
   <path d="m636.43 574.72s-17.492 24.999-10.281 34.656c2.3368 3.1296 7.3564 4.4716 12 4.0312-3.5098-0.32664-6.7969-1.6667-8.5625-4.0312-5.8423-7.8245 4.3854-25.517 8.5312-32.031-0.96866-1.5217-1.6875-2.625-1.6875-2.625z"/>
   <path d="m639.62 589.05s8.967 12.828 5.2685 17.781c-2.1014 2.8144-8.4356 2.8144-10.537 0-3.6985-4.9533 5.2685-17.781 5.2685-17.781z" fill="url(#a)"/>
  </g>
  <g transform="matrix(-.42351 -.11348 .10138 -.37836 1242.1 748.36)">
   <path d="m636.43 574.72s17.483 25.01 10.272 34.668c-4.0971 5.4871-16.447 5.4871-20.544 0-7.2109-9.6574 10.272-34.668 10.272-34.668z" fill="#2b0000"/>
   <path d="m636.43 574.72s-17.492 24.999-10.281 34.656c2.3368 3.1296 7.3564 4.4716 12 4.0312-3.5098-0.32664-6.7969-1.6667-8.5625-4.0312-5.8423-7.8245 4.3854-25.517 8.5312-32.031-0.96866-1.5217-1.6875-2.625-1.6875-2.625z"/>
   <path d="m639.62 589.05s8.967 12.828 5.2685 17.781c-2.1014 2.8144-8.4356 2.8144-10.537 0-3.6985-4.9533 5.2685-17.781 5.2685-17.781z" fill="url(#a)"/>
  </g>
  <g transform="matrix(-.42351 -.11348 .10138 -.37836 1179.4 697.19)">
   <path d="m636.43 574.72s17.483 25.01 10.272 34.668c-4.0971 5.4871-16.447 5.4871-20.544 0-7.2109-9.6574 10.272-34.668 10.272-34.668z" fill="#2b0000"/>
   <path d="m636.43 574.72s-17.492 24.999-10.281 34.656c2.3368 3.1296 7.3564 4.4716 12 4.0312-3.5098-0.32664-6.7969-1.6667-8.5625-4.0312-5.8423-7.8245 4.3854-25.517 8.5312-32.031-0.96866-1.5217-1.6875-2.625-1.6875-2.625z"/>
   <path d="m639.62 589.05s8.967 12.828 5.2685 17.781c-2.1014 2.8144-8.4356 2.8144-10.537 0-3.6985-4.9533 5.2685-17.781 5.2685-17.781z" fill="url(#a)"/>
  </g>
  <g transform="matrix(-.42351 -.11348 .10138 -.37836 1122.5 659.71)">
   <path d="m636.43 574.72s17.483 25.01 10.272 34.668c-4.0971 5.4871-16.447 5.4871-20.544 0-7.2109-9.6574 10.272-34.668 10.272-34.668z" fill="#2b0000"/>
   <path d="m636.43 574.72s-17.492 24.999-10.281 34.656c2.3368 3.1296 7.3564 4.4716 12 4.0312-3.5098-0.32664-6.7969-1.6667-8.5625-4.0312-5.8423-7.8245 4.3854-25.517 8.5312-32.031-0.96866-1.5217-1.6875-2.625-1.6875-2.625z"/>
   <path d="m639.62 589.05s8.967 12.828 5.2685 17.781c-2.1014 2.8144-8.4356 2.8144-10.537 0-3.6985-4.9533 5.2685-17.781 5.2685-17.781z" fill="url(#a)"/>
  </g>
  <g transform="matrix(-.42351 -.11348 .10138 -.37836 1060.1 628.9)">
   <path d="m636.43 574.72s17.483 25.01 10.272 34.668c-4.0971 5.4871-16.447 5.4871-20.544 0-7.2109-9.6574 10.272-34.668 10.272-34.668z" fill="#2b0000"/>
   <path d="m636.43 574.72s-17.492 24.999-10.281 34.656c2.3368 3.1296 7.3564 4.4716 12 4.0312-3.5098-0.32664-6.7969-1.6667-8.5625-4.0312-5.8423-7.8245 4.3854-25.517 8.5312-32.031-0.96866-1.5217-1.6875-2.625-1.6875-2.625z"/>
   <path d="m639.62 589.05s8.967 12.828 5.2685 17.781c-2.1014 2.8144-8.4356 2.8144-10.537 0-3.6985-4.9533 5.2685-17.781 5.2685-17.781z" fill="url(#a)"/>
  </g>
  <g transform="matrix(-.42351 -.11348 .10138 -.37836 1008.7 596.67)">
   <path d="m636.43 574.72s17.483 25.01 10.272 34.668c-4.0971 5.4871-16.447 5.4871-20.544 0-7.2109-9.6574 10.272-34.668 10.272-34.668z" fill="#2b0000"/>
   <path d="m636.43 574.72s-17.492 24.999-10.281 34.656c2.3368 3.1296 7.3564 4.4716 12 4.0312-3.5098-0.32664-6.7969-1.6667-8.5625-4.0312-5.8423-7.8245 4.3854-25.517 8.5312-32.031-0.96866-1.5217-1.6875-2.625-1.6875-2.625z"/>
   <path d="m639.62 589.05s8.967 12.828 5.2685 17.781c-2.1014 2.8144-8.4356 2.8144-10.537 0-3.6985-4.9533 5.2685-17.781 5.2685-17.781z" fill="url(#a)"/>
  </g>
  <g transform="matrix(-.42351 -.11348 .10138 -.37836 953.3 572.3)">
   <path d="m636.43 574.72s17.483 25.01 10.272 34.668c-4.0971 5.4871-16.447 5.4871-20.544 0-7.2109-9.6574 10.272-34.668 10.272-34.668z" fill="#2b0000"/>
   <path d="m636.43 574.72s-17.492 24.999-10.281 34.656c2.3368 3.1296 7.3564 4.4716 12 4.0312-3.5098-0.32664-6.7969-1.6667-8.5625-4.0312-5.8423-7.8245 4.3854-25.517 8.5312-32.031-0.96866-1.5217-1.6875-2.625-1.6875-2.625z"/>
   <path d="m639.62 589.05s8.967 12.828 5.2685 17.781c-2.1014 2.8144-8.4356 2.8144-10.537 0-3.6985-4.9533 5.2685-17.781 5.2685-17.781z" fill="url(#a)"/>
  </g>
  <g transform="matrix(-.42351 -.11348 .10138 -.37836 890.19 553.34)">
   <path d="m636.43 574.72s17.483 25.01 10.272 34.668c-4.0971 5.4871-16.447 5.4871-20.544 0-7.2109-9.6574 10.272-34.668 10.272-34.668z" fill="#2b0000"/>
   <path d="m636.43 574.72s-17.492 24.999-10.281 34.656c2.3368 3.1296 7.3564 4.4716 12 4.0312-3.5098-0.32664-6.7969-1.6667-8.5625-4.0312-5.8423-7.8245 4.3854-25.517 8.5312-32.031-0.96866-1.5217-1.6875-2.625-1.6875-2.625z"/>
   <path d="m639.62 589.05s8.967 12.828 5.2685 17.781c-2.1014 2.8144-8.4356 2.8144-10.537 0-3.6985-4.9533 5.2685-17.781 5.2685-17.781z" fill="url(#a)"/>
  </g>
  <g transform="matrix(-.42351 -.11348 .10138 -.37836 823.22 539.27)">
   <path d="m636.43 574.72s17.483 25.01 10.272 34.668c-4.0971 5.4871-16.447 5.4871-20.544 0-7.2109-9.6574 10.272-34.668 10.272-34.668z" fill="#2b0000"/>
   <path d="m636.43 574.72s-17.492 24.999-10.281 34.656c2.3368 3.1296 7.3564 4.4716 12 4.0312-3.5098-0.32664-6.7969-1.6667-8.5625-4.0312-5.8423-7.8245 4.3854-25.517 8.5312-32.031-0.96866-1.5217-1.6875-2.625-1.6875-2.625z"/>
   <path d="m639.62 589.05s8.967 12.828 5.2685 17.781c-2.1014 2.8144-8.4356 2.8144-10.537 0-3.6985-4.9533 5.2685-17.781 5.2685-17.781z" fill="url(#a)"/>
  </g>
  <g transform="matrix(-.42351 -.11348 .10138 -.37836 747.15 526.16)">
   <path d="m636.43 574.72s17.483 25.01 10.272 34.668c-4.0971 5.4871-16.447 5.4871-20.544 0-7.2109-9.6574 10.272-34.668 10.272-34.668z" fill="#2b0000"/>
   <path d="m636.43 574.72s-17.492 24.999-10.281 34.656c2.3368 3.1296 7.3564 4.4716 12 4.0312-3.5098-0.32664-6.7969-1.6667-8.5625-4.0312-5.8423-7.8245 4.3854-25.517 8.5312-32.031-0.96866-1.5217-1.6875-2.625-1.6875-2.625z"/>
   <path d="m639.62 589.05s8.967 12.828 5.2685 17.781c-2.1014 2.8144-8.4356 2.8144-10.537 0-3.6985-4.9533 5.2685-17.781 5.2685-17.781z" fill="url(#a)"/>
  </g>
  <g transform="matrix(-.42351 -.11348 .10138 -.37836 687.89 522.75)">
   <path d="m636.43 574.72s17.483 25.01 10.272 34.668c-4.0971 5.4871-16.447 5.4871-20.544 0-7.2109-9.6574 10.272-34.668 10.272-34.668z" fill="#2b0000"/>
   <path d="m636.43 574.72s-17.492 24.999-10.281 34.656c2.3368 3.1296 7.3564 4.4716 12 4.0312-3.5098-0.32664-6.7969-1.6667-8.5625-4.0312-5.8423-7.8245 4.3854-25.517 8.5312-32.031-0.96866-1.5217-1.6875-2.625-1.6875-2.625z"/>
   <path d="m639.62 589.05s8.967 12.828 5.2685 17.781c-2.1014 2.8144-8.4356 2.8144-10.537 0-3.6985-4.9533 5.2685-17.781 5.2685-17.781z" fill="url(#a)"/>
  </g>
  <g transform="matrix(-.42351 -.11348 .10138 -.37836 619.37 521.79)">
   <path d="m636.43 574.72s17.483 25.01 10.272 34.668c-4.0971 5.4871-16.447 5.4871-20.544 0-7.2109-9.6574 10.272-34.668 10.272-34.668z" fill="#2b0000"/>
   <path d="m636.43 574.72s-17.492 24.999-10.281 34.656c2.3368 3.1296 7.3564 4.4716 12 4.0312-3.5098-0.32664-6.7969-1.6667-8.5625-4.0312-5.8423-7.8245 4.3854-25.517 8.5312-32.031-0.96866-1.5217-1.6875-2.625-1.6875-2.625z"/>
   <path d="m639.62 589.05s8.967 12.828 5.2685 17.781c-2.1014 2.8144-8.4356 2.8144-10.537 0-3.6985-4.9533 5.2685-17.781 5.2685-17.781z" fill="url(#a)"/>
  </g>
  <g transform="matrix(-.42351 -.11348 .10138 -.37836 548.56 528.38)">
   <path d="m636.43 574.72s17.483 25.01 10.272 34.668c-4.0971 5.4871-16.447 5.4871-20.544 0-7.2109-9.6574 10.272-34.668 10.272-34.668z" fill="#2b0000"/>
   <path d="m636.43 574.72s-17.492 24.999-10.281 34.656c2.3368 3.1296 7.3564 4.4716 12 4.0312-3.5098-0.32664-6.7969-1.6667-8.5625-4.0312-5.8423-7.8245 4.3854-25.517 8.5312-32.031-0.96866-1.5217-1.6875-2.625-1.6875-2.625z"/>
   <path d="m639.62 589.05s8.967 12.828 5.2685 17.781c-2.1014 2.8144-8.4356 2.8144-10.537 0-3.6985-4.9533 5.2685-17.781 5.2685-17.781z" fill="url(#a)"/>
  </g>
  <g transform="matrix(-.42351 -.11348 .10138 -.37836 468.63 541.49)">
   <path d="m636.43 574.72s17.483 25.01 10.272 34.668c-4.0971 5.4871-16.447 5.4871-20.544 0-7.2109-9.6574 10.272-34.668 10.272-34.668z" fill="#2b0000"/>
   <path d="m636.43 574.72s-17.492 24.999-10.281 34.656c2.3368 3.1296 7.3564 4.4716 12 4.0312-3.5098-0.32664-6.7969-1.6667-8.5625-4.0312-5.8423-7.8245 4.3854-25.517 8.5312-32.031-0.96866-1.5217-1.6875-2.625-1.6875-2.625z"/>
   <path d="m639.62 589.05s8.967 12.828 5.2685 17.781c-2.1014 2.8144-8.4356 2.8144-10.537 0-3.6985-4.9533 5.2685-17.781 5.2685-17.781z" fill="url(#a)"/>
  </g>
  <g transform="matrix(-.42351 -.11348 .10138 -.37836 392.85 561.19)">
   <path d="m636.43 574.72s17.483 25.01 10.272 34.668c-4.0971 5.4871-16.447 5.4871-20.544 0-7.2109-9.6574 10.272-34.668 10.272-34.668z" fill="#2b0000"/>
   <path d="m636.43 574.72s-17.492 24.999-10.281 34.656c2.3368 3.1296 7.3564 4.4716 12 4.0312-3.5098-0.32664-6.7969-1.6667-8.5625-4.0312-5.8423-7.8245 4.3854-25.517 8.5312-32.031-0.96866-1.5217-1.6875-2.625-1.6875-2.625z"/>
   <path d="m639.62 589.05s8.967 12.828 5.2685 17.781c-2.1014 2.8144-8.4356 2.8144-10.537 0-3.6985-4.9533 5.2685-17.781 5.2685-17.781z" fill="url(#a)"/>
  </g>
  <g transform="matrix(-.42351 -.11348 -.10138 .37836 1362.1 456.14)">
   <path d="m636.43 574.72s17.483 25.01 10.272 34.668c-4.0971 5.4871-16.447 5.4871-20.544 0-7.2109-9.6574 10.272-34.668 10.272-34.668z" fill="#2b0000"/>
   <path d="m636.43 574.72s-17.492 24.999-10.281 34.656c2.3368 3.1296 7.3564 4.4716 12 4.0312-3.5098-0.32664-6.7969-1.6667-8.5625-4.0312-5.8423-7.8245 4.3854-25.517 8.5312-32.031-0.96866-1.5217-1.6875-2.625-1.6875-2.625z"/>
   <path d="m639.62 589.05s8.967 12.828 5.2685 17.781c-2.1014 2.8144-8.4356 2.8144-10.537 0-3.6985-4.9533 5.2685-17.781 5.2685-17.781z" fill="url(#a)"/>
  </g>
  <g transform="matrix(-.42351 -.11348 -.10138 .37836 1308.3 448.78)">
   <path d="m636.43 574.72s17.483 25.01 10.272 34.668c-4.0971 5.4871-16.447 5.4871-20.544 0-7.2109-9.6574 10.272-34.668 10.272-34.668z" fill="#2b0000"/>
   <path d="m636.43 574.72s-17.492 24.999-10.281 34.656c2.3368 3.1296 7.3564 4.4716 12 4.0312-3.5098-0.32664-6.7969-1.6667-8.5625-4.0312-5.8423-7.8245 4.3854-25.517 8.5312-32.031-0.96866-1.5217-1.6875-2.625-1.6875-2.625z"/>
   <path d="m639.62 589.05s8.967 12.828 5.2685 17.781c-2.1014 2.8144-8.4356 2.8144-10.537 0-3.6985-4.9533 5.2685-17.781 5.2685-17.781z" fill="url(#a)"/>
  </g>
  <g transform="matrix(-.42351 -.11348 -.10138 .37836 1242.4 447.63)">
   <path d="m636.43 574.72s17.483 25.01 10.272 34.668c-4.0971 5.4871-16.447 5.4871-20.544 0-7.2109-9.6574 10.272-34.668 10.272-34.668z" fill="#2b0000"/>
   <path d="m636.43 574.72s-17.492 24.999-10.281 34.656c2.3368 3.1296 7.3564 4.4716 12 4.0312-3.5098-0.32664-6.7969-1.6667-8.5625-4.0312-5.8423-7.8245 4.3854-25.517 8.5312-32.031-0.96866-1.5217-1.6875-2.625-1.6875-2.625z"/>
   <path d="m639.62 589.05s8.967 12.828 5.2685 17.781c-2.1014 2.8144-8.4356 2.8144-10.537 0-3.6985-4.9533 5.2685-17.781 5.2685-17.781z" fill="url(#a)"/>
  </g>
  <g transform="matrix(-.42351 -.11348 -.10138 .37836 1167.4 445.61)">
   <path d="m636.43 574.72s17.483 25.01 10.272 34.668c-4.0971 5.4871-16.447 5.4871-20.544 0-7.2109-9.6574 10.272-34.668 10.272-34.668z" fill="#2b0000"/>
   <path d="m636.43 574.72s-17.492 24.999-10.281 34.656c2.3368 3.1296 7.3564 4.4716 12 4.0312-3.5098-0.32664-6.7969-1.6667-8.5625-4.0312-5.8423-7.8245 4.3854-25.517 8.5312-32.031-0.96866-1.5217-1.6875-2.625-1.6875-2.625z"/>
   <path d="m639.62 589.05s8.967 12.828 5.2685 17.781c-2.1014 2.8144-8.4356 2.8144-10.537 0-3.6985-4.9533 5.2685-17.781 5.2685-17.781z" fill="url(#a)"/>
  </g>
  <g transform="matrix(-.42351 -.11348 -.10138 .37836 1098 439.11)">
   <path d="m636.43 574.72s17.483 25.01 10.272 34.668c-4.0971 5.4871-16.447 5.4871-20.544 0-7.2109-9.6574 10.272-34.668 10.272-34.668z" fill="#2b0000"/>
   <path d="m636.43 574.72s-17.492 24.999-10.281 34.656c2.3368 3.1296 7.3564 4.4716 12 4.0312-3.5098-0.32664-6.7969-1.6667-8.5625-4.0312-5.8423-7.8245 4.3854-25.517 8.5312-32.031-0.96866-1.5217-1.6875-2.625-1.6875-2.625z"/>
   <path d="m639.62 589.05s8.967 12.828 5.2685 17.781c-2.1014 2.8144-8.4356 2.8144-10.537 0-3.6985-4.9533 5.2685-17.781 5.2685-17.781z" fill="url(#a)"/>
  </g>
  <g transform="matrix(-.42351 -.11348 -.10138 .37836 1036.1 431.38)">
   <path d="m636.43 574.72s17.483 25.01 10.272 34.668c-4.0971 5.4871-16.447 5.4871-20.544 0-7.2109-9.6574 10.272-34.668 10.272-34.668z" fill="#2b0000"/>
   <path d="m636.43 574.72s-17.492 24.999-10.281 34.656c2.3368 3.1296 7.3564 4.4716 12 4.0312-3.5098-0.32664-6.7969-1.6667-8.5625-4.0312-5.8423-7.8245 4.3854-25.517 8.5312-32.031-0.96866-1.5217-1.6875-2.625-1.6875-2.625z"/>
   <path d="m639.62 589.05s8.967 12.828 5.2685 17.781c-2.1014 2.8144-8.4356 2.8144-10.537 0-3.6985-4.9533 5.2685-17.781 5.2685-17.781z" fill="url(#a)"/>
  </g>
  <g transform="matrix(-.42351 -.11348 -.10138 .37836 974.23 425.79)">
   <path d="m636.43 574.72s17.483 25.01 10.272 34.668c-4.0971 5.4871-16.447 5.4871-20.544 0-7.2109-9.6574 10.272-34.668 10.272-34.668z" fill="#2b0000"/>
   <path d="m636.43 574.72s-17.492 24.999-10.281 34.656c2.3368 3.1296 7.3564 4.4716 12 4.0312-3.5098-0.32664-6.7969-1.6667-8.5625-4.0312-5.8423-7.8245 4.3854-25.517 8.5312-32.031-0.96866-1.5217-1.6875-2.625-1.6875-2.625z"/>
   <path d="m639.62 589.05s8.967 12.828 5.2685 17.781c-2.1014 2.8144-8.4356 2.8144-10.537 0-3.6985-4.9533 5.2685-17.781 5.2685-17.781z" fill="url(#a)"/>
  </g>
  <g transform="matrix(-.42351 -.11348 -.10138 .37836 913.83 410.19)">
   <path d="m636.43 574.72s17.483 25.01 10.272 34.668c-4.0971 5.4871-16.447 5.4871-20.544 0-7.2109-9.6574 10.272-34.668 10.272-34.668z" fill="#2b0000"/>
   <path d="m636.43 574.72s-17.492 24.999-10.281 34.656c2.3368 3.1296 7.3564 4.4716 12 4.0312-3.5098-0.32664-6.7969-1.6667-8.5625-4.0312-5.8423-7.8245 4.3854-25.517 8.5312-32.031-0.96866-1.5217-1.6875-2.625-1.6875-2.625z"/>
   <path d="m639.62 589.05s8.967 12.828 5.2685 17.781c-2.1014 2.8144-8.4356 2.8144-10.537 0-3.6985-4.9533 5.2685-17.781 5.2685-17.781z" fill="url(#a)"/>
  </g>
  <g transform="matrix(-.42351 -.11348 -.10138 .37836 852.26 394.9)">
   <path d="m636.43 574.72s17.483 25.01 10.272 34.668c-4.0971 5.4871-16.447 5.4871-20.544 0-7.2109-9.6574 10.272-34.668 10.272-34.668z" fill="#2b0000"/>
   <path d="m636.43 574.72s-17.492 24.999-10.281 34.656c2.3368 3.1296 7.3564 4.4716 12 4.0312-3.5098-0.32664-6.7969-1.6667-8.5625-4.0312-5.8423-7.8245 4.3854-25.517 8.5312-32.031-0.96866-1.5217-1.6875-2.625-1.6875-2.625z"/>
   <path d="m639.62 589.05s8.967 12.828 5.2685 17.781c-2.1014 2.8144-8.4356 2.8144-10.537 0-3.6985-4.9533 5.2685-17.781 5.2685-17.781z" fill="url(#a)"/>
  </g>
  <g transform="matrix(-.42351 -.11348 -.10138 .37836 780.56 372.94)">
   <path d="m636.43 574.72s17.483 25.01 10.272 34.668c-4.0971 5.4871-16.447 5.4871-20.544 0-7.2109-9.6574 10.272-34.668 10.272-34.668z" fill="#2b0000"/>
   <path d="m636.43 574.72s-17.492 24.999-10.281 34.656c2.3368 3.1296 7.3564 4.4716 12 4.0312-3.5098-0.32664-6.7969-1.6667-8.5625-4.0312-5.8423-7.8245 4.3854-25.517 8.5312-32.031-0.96866-1.5217-1.6875-2.625-1.6875-2.625z"/>
   <path d="m639.62 589.05s8.967 12.828 5.2685 17.781c-2.1014 2.8144-8.4356 2.8144-10.537 0-3.6985-4.9533 5.2685-17.781 5.2685-17.781z" fill="url(#a)"/>
  </g>
  <g transform="matrix(-.42351 -.11348 -.10138 .37836 726.53 350)">
   <path d="m636.43 574.72s17.483 25.01 10.272 34.668c-4.0971 5.4871-16.447 5.4871-20.544 0-7.2109-9.6574 10.272-34.668 10.272-34.668z" fill="#2b0000"/>
   <path d="m636.43 574.72s-17.492 24.999-10.281 34.656c2.3368 3.1296 7.3564 4.4716 12 4.0312-3.5098-0.32664-6.7969-1.6667-8.5625-4.0312-5.8423-7.8245 4.3854-25.517 8.5312-32.031-0.96866-1.5217-1.6875-2.625-1.6875-2.625z"/>
   <path d="m639.62 589.05s8.967 12.828 5.2685 17.781c-2.1014 2.8144-8.4356 2.8144-10.537 0-3.6985-4.9533 5.2685-17.781 5.2685-17.781z" fill="url(#a)"/>
  </g>
  <g transform="matrix(-.42351 -.11348 -.10138 .37836 666.71 318.57)">
   <path d="m636.43 574.72s17.483 25.01 10.272 34.668c-4.0971 5.4871-16.447 5.4871-20.544 0-7.2109-9.6574 10.272-34.668 10.272-34.668z" fill="#2b0000"/>
   <path d="m636.43 574.72s-17.492 24.999-10.281 34.656c2.3368 3.1296 7.3564 4.4716 12 4.0312-3.5098-0.32664-6.7969-1.6667-8.5625-4.0312-5.8423-7.8245 4.3854-25.517 8.5312-32.031-0.96866-1.5217-1.6875-2.625-1.6875-2.625z"/>
   <path d="m639.62 589.05s8.967 12.828 5.2685 17.781c-2.1014 2.8144-8.4356 2.8144-10.537 0-3.6985-4.9533 5.2685-17.781 5.2685-17.781z" fill="url(#a)"/>
  </g>
  <g transform="matrix(-.42351 -.11348 -.10138 .37836 608.88 289.12)">
   <path d="m636.43 574.72s17.483 25.01 10.272 34.668c-4.0971 5.4871-16.447 5.4871-20.544 0-7.2109-9.6574 10.272-34.668 10.272-34.668z" fill="#2b0000"/>
   <path d="m636.43 574.72s-17.492 24.999-10.281 34.656c2.3368 3.1296 7.3564 4.4716 12 4.0312-3.5098-0.32664-6.7969-1.6667-8.5625-4.0312-5.8423-7.8245 4.3854-25.517 8.5312-32.031-0.96866-1.5217-1.6875-2.625-1.6875-2.625z"/>
   <path d="m639.62 589.05s8.967 12.828 5.2685 17.781c-2.1014 2.8144-8.4356 2.8144-10.537 0-3.6985-4.9533 5.2685-17.781 5.2685-17.781z" fill="url(#a)"/>
  </g>
  <g transform="matrix(-.42351 -.11348 -.10138 .37836 546.68 244.99)">
   <path d="m636.43 574.72s17.483 25.01 10.272 34.668c-4.0971 5.4871-16.447 5.4871-20.544 0-7.2109-9.6574 10.272-34.668 10.272-34.668z" fill="#2b0000"/>
   <path d="m636.43 574.72s-17.492 24.999-10.281 34.656c2.3368 3.1296 7.3564 4.4716 12 4.0312-3.5098-0.32664-6.7969-1.6667-8.5625-4.0312-5.8423-7.8245 4.3854-25.517 8.5312-32.031-0.96866-1.5217-1.6875-2.625-1.6875-2.625z"/>
   <path d="m639.62 589.05s8.967 12.828 5.2685 17.781c-2.1014 2.8144-8.4356 2.8144-10.537 0-3.6985-4.9533 5.2685-17.781 5.2685-17.781z" fill="url(#a)"/>
  </g>
  <g transform="matrix(-.42351 -.11348 -.10138 .37836 474.17 202.24)">
   <path d="m636.43 574.72s17.483 25.01 10.272 34.668c-4.0971 5.4871-16.447 5.4871-20.544 0-7.2109-9.6574 10.272-34.668 10.272-34.668z" fill="#2b0000"/>
   <path d="m636.43 574.72s-17.492 24.999-10.281 34.656c2.3368 3.1296 7.3564 4.4716 12 4.0312-3.5098-0.32664-6.7969-1.6667-8.5625-4.0312-5.8423-7.8245 4.3854-25.517 8.5312-32.031-0.96866-1.5217-1.6875-2.625-1.6875-2.625z"/>
   <path d="m639.62 589.05s8.967 12.828 5.2685 17.781c-2.1014 2.8144-8.4356 2.8144-10.537 0-3.6985-4.9533 5.2685-17.781 5.2685-17.781z" fill="url(#a)"/>
  </g>
  <g transform="matrix(-.42351 -.11348 -.10138 .37836 1297 513.46)">
   <path d="m636.43 574.72s17.483 25.01 10.272 34.668c-4.0971 5.4871-16.447 5.4871-20.544 0-7.2109-9.6574 10.272-34.668 10.272-34.668z" fill="#2b0000"/>
   <path d="m636.43 574.72s-17.492 24.999-10.281 34.656c2.3368 3.1296 7.3564 4.4716 12 4.0312-3.5098-0.32664-6.7969-1.6667-8.5625-4.0312-5.8423-7.8245 4.3854-25.517 8.5312-32.031-0.96866-1.5217-1.6875-2.625-1.6875-2.625z"/>
   <path d="m639.62 589.05s8.967 12.828 5.2685 17.781c-2.1014 2.8144-8.4356 2.8144-10.537 0-3.6985-4.9533 5.2685-17.781 5.2685-17.781z" fill="url(#a)"/>
  </g>
  <g transform="matrix(-.42351 -.11348 -.10138 .37836 1217.1 526.43)">
   <path d="m636.43 574.72s17.483 25.01 10.272 34.668c-4.0971 5.4871-16.447 5.4871-20.544 0-7.2109-9.6574 10.272-34.668 10.272-34.668z" fill="#2b0000"/>
   <path d="m636.43 574.72s-17.492 24.999-10.281 34.656c2.3368 3.1296 7.3564 4.4716 12 4.0312-3.5098-0.32664-6.7969-1.6667-8.5625-4.0312-5.8423-7.8245 4.3854-25.517 8.5312-32.031-0.96866-1.5217-1.6875-2.625-1.6875-2.625z"/>
   <path d="m639.62 589.05s8.967 12.828 5.2685 17.781c-2.1014 2.8144-8.4356 2.8144-10.537 0-3.6985-4.9533 5.2685-17.781 5.2685-17.781z" fill="url(#a)"/>
  </g>
  <g transform="matrix(-.42351 -.11348 -.10138 .37836 1149 530.41)">
   <path d="m636.43 574.72s17.483 25.01 10.272 34.668c-4.0971 5.4871-16.447 5.4871-20.544 0-7.2109-9.6574 10.272-34.668 10.272-34.668z" fill="#2b0000"/>
   <path d="m636.43 574.72s-17.492 24.999-10.281 34.656c2.3368 3.1296 7.3564 4.4716 12 4.0312-3.5098-0.32664-6.7969-1.6667-8.5625-4.0312-5.8423-7.8245 4.3854-25.517 8.5312-32.031-0.96866-1.5217-1.6875-2.625-1.6875-2.625z"/>
   <path d="m639.62 589.05s8.967 12.828 5.2685 17.781c-2.1014 2.8144-8.4356 2.8144-10.537 0-3.6985-4.9533 5.2685-17.781 5.2685-17.781z" fill="url(#a)"/>
  </g>
  <g transform="matrix(-.42351 -.11348 -.10138 .37836 1079.6 525.91)">
   <path d="m636.43 574.72s17.483 25.01 10.272 34.668c-4.0971 5.4871-16.447 5.4871-20.544 0-7.2109-9.6574 10.272-34.668 10.272-34.668z" fill="#2b0000"/>
   <path d="m636.43 574.72s-17.492 24.999-10.281 34.656c2.3368 3.1296 7.3564 4.4716 12 4.0312-3.5098-0.32664-6.7969-1.6667-8.5625-4.0312-5.8423-7.8245 4.3854-25.517 8.5312-32.031-0.96866-1.5217-1.6875-2.625-1.6875-2.625z"/>
   <path d="m639.62 589.05s8.967 12.828 5.2685 17.781c-2.1014 2.8144-8.4356 2.8144-10.537 0-3.6985-4.9533 5.2685-17.781 5.2685-17.781z" fill="url(#a)"/>
  </g>
  <g transform="matrix(-.42351 -.11348 -.10138 .37836 1019 528.11)">
   <path d="m636.43 574.72s17.483 25.01 10.272 34.668c-4.0971 5.4871-16.447 5.4871-20.544 0-7.2109-9.6574 10.272-34.668 10.272-34.668z" fill="#2b0000"/>
   <path d="m636.43 574.72s-17.492 24.999-10.281 34.656c2.3368 3.1296 7.3564 4.4716 12 4.0312-3.5098-0.32664-6.7969-1.6667-8.5625-4.0312-5.8423-7.8245 4.3854-25.517 8.5312-32.031-0.96866-1.5217-1.6875-2.625-1.6875-2.625z"/>
   <path d="m639.62 589.05s8.967 12.828 5.2685 17.781c-2.1014 2.8144-8.4356 2.8144-10.537 0-3.6985-4.9533 5.2685-17.781 5.2685-17.781z" fill="url(#a)"/>
  </g>
  <g transform="matrix(-.42351 -.11348 -.10138 .37836 958.82 521.51)">
   <path d="m636.43 574.72s17.483 25.01 10.272 34.668c-4.0971 5.4871-16.447 5.4871-20.544 0-7.2109-9.6574 10.272-34.668 10.272-34.668z" fill="#2b0000"/>
   <path d="m636.43 574.72s-17.492 24.999-10.281 34.656c2.3368 3.1296 7.3564 4.4716 12 4.0312-3.5098-0.32664-6.7969-1.6667-8.5625-4.0312-5.8423-7.8245 4.3854-25.517 8.5312-32.031-0.96866-1.5217-1.6875-2.625-1.6875-2.625z"/>
   <path d="m639.62 589.05s8.967 12.828 5.2685 17.781c-2.1014 2.8144-8.4356 2.8144-10.537 0-3.6985-4.9533 5.2685-17.781 5.2685-17.781z" fill="url(#a)"/>
  </g>
  <g transform="matrix(-.42351 -.11348 -.10138 .37836 894.68 506.38)">
   <path d="m636.43 574.72s17.483 25.01 10.272 34.668c-4.0971 5.4871-16.447 5.4871-20.544 0-7.2109-9.6574 10.272-34.668 10.272-34.668z" fill="#2b0000"/>
   <path d="m636.43 574.72s-17.492 24.999-10.281 34.656c2.3368 3.1296 7.3564 4.4716 12 4.0312-3.5098-0.32664-6.7969-1.6667-8.5625-4.0312-5.8423-7.8245 4.3854-25.517 8.5312-32.031-0.96866-1.5217-1.6875-2.625-1.6875-2.625z"/>
   <path d="m639.62 589.05s8.967 12.828 5.2685 17.781c-2.1014 2.8144-8.4356 2.8144-10.537 0-3.6985-4.9533 5.2685-17.781 5.2685-17.781z" fill="url(#a)"/>
  </g>
  <g transform="matrix(-.42351 -.11348 -.10138 .37836 829.65 485.09)">
   <path d="m636.43 574.72s17.483 25.01 10.272 34.668c-4.0971 5.4871-16.447 5.4871-20.544 0-7.2109-9.6574 10.272-34.668 10.272-34.668z" fill="#2b0000"/>
   <path d="m636.43 574.72s-17.492 24.999-10.281 34.656c2.3368 3.1296 7.3564 4.4716 12 4.0312-3.5098-0.32664-6.7969-1.6667-8.5625-4.0312-5.8423-7.8245 4.3854-25.517 8.5312-32.031-0.96866-1.5217-1.6875-2.625-1.6875-2.625z"/>
   <path d="m639.62 589.05s8.967 12.828 5.2685 17.781c-2.1014 2.8144-8.4356 2.8144-10.537 0-3.6985-4.9533 5.2685-17.781 5.2685-17.781z" fill="url(#a)"/>
  </g>
  <g transform="matrix(-.42351 -.11348 -.10138 .37836 757.21 458.41)">
   <path d="m636.43 574.72s17.483 25.01 10.272 34.668c-4.0971 5.4871-16.447 5.4871-20.544 0-7.2109-9.6574 10.272-34.668 10.272-34.668z" fill="#2b0000"/>
   <path d="m636.43 574.72s-17.492 24.999-10.281 34.656c2.3368 3.1296 7.3564 4.4716 12 4.0312-3.5098-0.32664-6.7969-1.6667-8.5625-4.0312-5.8423-7.8245 4.3854-25.517 8.5312-32.031-0.96866-1.5217-1.6875-2.625-1.6875-2.625z"/>
   <path d="m639.62 589.05s8.967 12.828 5.2685 17.781c-2.1014 2.8144-8.4356 2.8144-10.537 0-3.6985-4.9533 5.2685-17.781 5.2685-17.781z" fill="url(#a)"/>
  </g>
  <g transform="matrix(-.42351 -.11348 -.10138 .37836 704.19 431.73)">
   <path d="m636.43 574.72s17.483 25.01 10.272 34.668c-4.0971 5.4871-16.447 5.4871-20.544 0-7.2109-9.6574 10.272-34.668 10.272-34.668z" fill="#2b0000"/>
   <path d="m636.43 574.72s-17.492 24.999-10.281 34.656c2.3368 3.1296 7.3564 4.4716 12 4.0312-3.5098-0.32664-6.7969-1.6667-8.5625-4.0312-5.8423-7.8245 4.3854-25.517 8.5312-32.031-0.96866-1.5217-1.6875-2.625-1.6875-2.625z"/>
   <path d="m639.62 589.05s8.967 12.828 5.2685 17.781c-2.1014 2.8144-8.4356 2.8144-10.537 0-3.6985-4.9533 5.2685-17.781 5.2685-17.781z" fill="url(#a)"/>
  </g>
  <g transform="matrix(-.42351 -.11348 -.10138 .37836 644.37 398.3)">
   <path d="m636.43 574.72s17.483 25.01 10.272 34.668c-4.0971 5.4871-16.447 5.4871-20.544 0-7.2109-9.6574 10.272-34.668 10.272-34.668z" fill="#2b0000"/>
   <path d="m636.43 574.72s-17.492 24.999-10.281 34.656c2.3368 3.1296 7.3564 4.4716 12 4.0312-3.5098-0.32664-6.7969-1.6667-8.5625-4.0312-5.8423-7.8245 4.3854-25.517 8.5312-32.031-0.96866-1.5217-1.6875-2.625-1.6875-2.625z"/>
   <path d="m639.62 589.05s8.967 12.828 5.2685 17.781c-2.1014 2.8144-8.4356 2.8144-10.537 0-3.6985-4.9533 5.2685-17.781 5.2685-17.781z" fill="url(#a)"/>
  </g>
  <g transform="matrix(-.42351 -.11348 -.10138 .37836 586.34 357.18)">
   <path d="m636.43 574.72s17.483 25.01 10.272 34.668c-4.0971 5.4871-16.447 5.4871-20.544 0-7.2109-9.6574 10.272-34.668 10.272-34.668z" fill="#2b0000"/>
   <path d="m636.43 574.72s-17.492 24.999-10.281 34.656c2.3368 3.1296 7.3564 4.4716 12 4.0312-3.5098-0.32664-6.7969-1.6667-8.5625-4.0312-5.8423-7.8245 4.3854-25.517 8.5312-32.031-0.96866-1.5217-1.6875-2.625-1.6875-2.625z"/>
   <path d="m639.62 589.05s8.967 12.828 5.2685 17.781c-2.1014 2.8144-8.4356 2.8144-10.537 0-3.6985-4.9533 5.2685-17.781 5.2685-17.781z" fill="url(#a)"/>
  </g>
  <g transform="matrix(-.42351 -.11348 -.10138 .37836 523.68 305.87)">
   <path d="m636.43 574.72s17.483 25.01 10.272 34.668c-4.0971 5.4871-16.447 5.4871-20.544 0-7.2109-9.6574 10.272-34.668 10.272-34.668z" fill="#2b0000"/>
   <path d="m636.43 574.72s-17.492 24.999-10.281 34.656c2.3368 3.1296 7.3564 4.4716 12 4.0312-3.5098-0.32664-6.7969-1.6667-8.5625-4.0312-5.8423-7.8245 4.3854-25.517 8.5312-32.031-0.96866-1.5217-1.6875-2.625-1.6875-2.625z"/>
   <path d="m639.62 589.05s8.967 12.828 5.2685 17.781c-2.1014 2.8144-8.4356 2.8144-10.537 0-3.6985-4.9533 5.2685-17.781 5.2685-17.781z" fill="url(#a)"/>
  </g>
  <g transform="matrix(-.42351 -.11348 -.10138 .37836 467.9 250.91)">
   <path d="m636.43 574.72s17.483 25.01 10.272 34.668c-4.0971 5.4871-16.447 5.4871-20.544 0-7.2109-9.6574 10.272-34.668 10.272-34.668z" fill="#2b0000"/>
   <path d="m636.43 574.72s-17.492 24.999-10.281 34.656c2.3368 3.1296 7.3564 4.4716 12 4.0312-3.5098-0.32664-6.7969-1.6667-8.5625-4.0312-5.8423-7.8245 4.3854-25.517 8.5312-32.031-0.96866-1.5217-1.6875-2.625-1.6875-2.625z"/>
   <path d="m639.62 589.05s8.967 12.828 5.2685 17.781c-2.1014 2.8144-8.4356 2.8144-10.537 0-3.6985-4.9533 5.2685-17.781 5.2685-17.781z" fill="url(#a)"/>
  </g>
 </g>
</svg>
